<mxfile host="Electron" modified="2023-12-21T16:43:57.105Z" agent="Mozilla/5.0 (X11; Linux x86_64) AppleWebKit/537.36 (KHTML, like Gecko) draw.io/22.1.2 Chrome/114.0.5735.289 Electron/25.9.4 Safari/537.36" etag="b9S0mMIvLgYEVL_Y6MXp" version="22.1.2" type="device">
  <diagram name="Page-1" id="LFaFiX9sYo1zRj2lnzwh">
    <mxGraphModel dx="2359" dy="2034" grid="0" gridSize="10" guides="1" tooltips="1" connect="1" arrows="1" fold="1" page="1" pageScale="1" pageWidth="850" pageHeight="1100" math="0" shadow="0">
      <root>
        <mxCell id="0" />
        <mxCell id="1" parent="0" />
        <mxCell id="C--NE389PpcoagH8Nilt-1" value="&lt;u&gt;phone number&lt;/u&gt;" style="rounded=0;whiteSpace=wrap;html=1;verticalAlign=middle;align=center;" parent="1" vertex="1">
          <mxGeometry x="-15.28688524590163" y="18.415384615384614" width="105.1639344262295" height="36.83076923076923" as="geometry" />
        </mxCell>
        <mxCell id="C--NE389PpcoagH8Nilt-2" value="First name" style="rounded=0;whiteSpace=wrap;html=1;verticalAlign=middle;align=center;" parent="1" vertex="1">
          <mxGeometry x="89.8770491803279" y="18.415384615384614" width="105.1639344262295" height="36.83076923076923" as="geometry" />
        </mxCell>
        <mxCell id="C--NE389PpcoagH8Nilt-4" value="Family name" style="rounded=0;whiteSpace=wrap;html=1;verticalAlign=middle;align=center;" parent="1" vertex="1">
          <mxGeometry x="184.52459016393448" y="18.415384615384614" width="105.1639344262295" height="36.83076923076923" as="geometry" />
        </mxCell>
        <mxCell id="C--NE389PpcoagH8Nilt-5" value="Driver" style="text;html=1;strokeColor=none;fillColor=none;align=center;verticalAlign=middle;whiteSpace=wrap;rounded=0;" parent="1" vertex="1">
          <mxGeometry x="-15.28688524590163" width="63.09836065573771" height="18.415384615384614" as="geometry" />
        </mxCell>
        <mxCell id="C--NE389PpcoagH8Nilt-6" value="&lt;u&gt;phone number&lt;/u&gt;" style="rounded=0;whiteSpace=wrap;html=1;verticalAlign=middle;align=center;" parent="1" vertex="1">
          <mxGeometry x="-15.28688524590163" y="104.35384615384616" width="105.1639344262295" height="36.83076923076923" as="geometry" />
        </mxCell>
        <mxCell id="C--NE389PpcoagH8Nilt-7" value="&#xa;&lt;span style=&quot;color: rgb(0, 0, 0); font-family: Helvetica; font-size: 12px; font-style: normal; font-variant-ligatures: normal; font-variant-caps: normal; font-weight: 400; letter-spacing: normal; orphans: 2; text-indent: 0px; text-transform: none; widows: 2; word-spacing: 0px; -webkit-text-stroke-width: 0px; background-color: rgb(251, 251, 251); text-decoration-thickness: initial; text-decoration-style: initial; text-decoration-color: initial; float: none; display: inline !important;&quot;&gt;Passenger&lt;/span&gt;&#xa;&#xa;" style="text;html=1;strokeColor=none;fillColor=none;align=center;verticalAlign=middle;whiteSpace=wrap;rounded=0;" parent="1" vertex="1">
          <mxGeometry x="-15.28688524590163" y="85.93846153846154" width="63.09836065573771" height="18.415384615384614" as="geometry" />
        </mxCell>
        <mxCell id="C--NE389PpcoagH8Nilt-8" value="first name" style="rounded=0;whiteSpace=wrap;html=1;verticalAlign=middle;align=center;" parent="1" vertex="1">
          <mxGeometry x="89.8770491803279" y="104.35384615384616" width="94.64754098360656" height="36.83076923076923" as="geometry" />
        </mxCell>
        <mxCell id="C--NE389PpcoagH8Nilt-9" value="family name" style="rounded=0;whiteSpace=wrap;html=1;verticalAlign=middle;align=center;" parent="1" vertex="1">
          <mxGeometry x="184.52459016393448" y="104.35384615384616" width="105.1639344262295" height="36.83076923076923" as="geometry" />
        </mxCell>
        <mxCell id="C--NE389PpcoagH8Nilt-10" value="&lt;u&gt;MicroBus ID&lt;/u&gt;" style="rounded=0;whiteSpace=wrap;html=1;verticalAlign=middle;align=center;" parent="1" vertex="1">
          <mxGeometry x="-15.28688524590163" y="178.01538461538462" width="105.1639344262295" height="36.83076923076923" as="geometry" />
        </mxCell>
        <mxCell id="C--NE389PpcoagH8Nilt-11" value="colour" style="rounded=0;whiteSpace=wrap;html=1;verticalAlign=middle;align=center;" parent="1" vertex="1">
          <mxGeometry x="89.8770491803279" y="178.01538461538462" width="94.64754098360656" height="36.83076923076923" as="geometry" />
        </mxCell>
        <mxCell id="C--NE389PpcoagH8Nilt-12" value="MicroBus" style="text;html=1;strokeColor=none;fillColor=none;align=center;verticalAlign=middle;whiteSpace=wrap;rounded=0;" parent="1" vertex="1">
          <mxGeometry x="-15.28688524590163" y="159.60000000000002" width="63.09836065573771" height="18.415384615384614" as="geometry" />
        </mxCell>
        <mxCell id="C--NE389PpcoagH8Nilt-43" style="edgeStyle=orthogonalEdgeStyle;rounded=0;orthogonalLoop=1;jettySize=auto;html=1;exitX=0.5;exitY=1;exitDx=0;exitDy=0;entryX=0;entryY=0.5;entryDx=0;entryDy=0;verticalAlign=middle;align=center;" parent="1" source="C--NE389PpcoagH8Nilt-13" target="C--NE389PpcoagH8Nilt-10" edge="1">
          <mxGeometry relative="1" as="geometry">
            <Array as="points">
              <mxPoint x="348" y="74" />
              <mxPoint x="-64" y="74" />
              <mxPoint x="-64" y="196" />
            </Array>
          </mxGeometry>
        </mxCell>
        <mxCell id="C--NE389PpcoagH8Nilt-13" value="&lt;u&gt;MicroBus ID&lt;/u&gt;" style="rounded=0;whiteSpace=wrap;html=1;verticalAlign=middle;align=center;" parent="1" vertex="1">
          <mxGeometry x="289.6885245901639" y="18.415384615384614" width="115.68032786885247" height="36.83076923076923" as="geometry" />
        </mxCell>
        <mxCell id="C--NE389PpcoagH8Nilt-16" value="card holder name" style="rounded=0;whiteSpace=wrap;html=1;verticalAlign=middle;align=center;" parent="1" vertex="1">
          <mxGeometry x="-15.28688524590163" y="253.53846153846155" width="105.1639344262295" height="36.83076923076923" as="geometry" />
        </mxCell>
        <mxCell id="C--NE389PpcoagH8Nilt-17" value="&lt;u&gt;card name&lt;/u&gt;" style="rounded=0;whiteSpace=wrap;html=1;verticalAlign=middle;align=center;" parent="1" vertex="1">
          <mxGeometry x="405.36885245901647" y="253.53846153846155" width="105.1639344262295" height="36.83076923076923" as="geometry" />
        </mxCell>
        <mxCell id="C--NE389PpcoagH8Nilt-18" value="CCV" style="rounded=0;whiteSpace=wrap;html=1;verticalAlign=middle;align=center;" parent="1" vertex="1">
          <mxGeometry x="89.8770491803279" y="253.53846153846155" width="105.1639344262295" height="36.83076923076923" as="geometry" />
        </mxCell>
        <mxCell id="C--NE389PpcoagH8Nilt-19" value="month" style="rounded=0;whiteSpace=wrap;html=1;verticalAlign=middle;align=center;" parent="1" vertex="1">
          <mxGeometry x="195.04098360655735" y="253.53846153846155" width="105.1639344262295" height="36.83076923076923" as="geometry" />
        </mxCell>
        <mxCell id="C--NE389PpcoagH8Nilt-20" value="year" style="rounded=0;whiteSpace=wrap;html=1;verticalAlign=middle;align=center;" parent="1" vertex="1">
          <mxGeometry x="300.2049180327869" y="253.53846153846155" width="105.1639344262295" height="36.83076923076923" as="geometry" />
        </mxCell>
        <mxCell id="C--NE389PpcoagH8Nilt-23" style="edgeStyle=orthogonalEdgeStyle;rounded=0;orthogonalLoop=1;jettySize=auto;html=1;exitX=0.5;exitY=1;exitDx=0;exitDy=0;entryX=0.75;entryY=0;entryDx=0;entryDy=0;verticalAlign=middle;align=center;" parent="1" source="C--NE389PpcoagH8Nilt-21" target="C--NE389PpcoagH8Nilt-17" edge="1">
          <mxGeometry relative="1" as="geometry" />
        </mxCell>
        <mxCell id="C--NE389PpcoagH8Nilt-21" value="&lt;u&gt;card name&lt;/u&gt;" style="rounded=0;whiteSpace=wrap;html=1;verticalAlign=middle;align=center;" parent="1" vertex="1">
          <mxGeometry x="394.8524590163935" y="18.415384615384614" width="105.1639344262295" height="36.83076923076923" as="geometry" />
        </mxCell>
        <mxCell id="C--NE389PpcoagH8Nilt-25" style="edgeStyle=orthogonalEdgeStyle;rounded=0;orthogonalLoop=1;jettySize=auto;html=1;exitX=0.5;exitY=1;exitDx=0;exitDy=0;entryX=0.25;entryY=0;entryDx=0;entryDy=0;verticalAlign=middle;align=center;" parent="1" source="C--NE389PpcoagH8Nilt-24" target="C--NE389PpcoagH8Nilt-17" edge="1">
          <mxGeometry relative="1" as="geometry" />
        </mxCell>
        <mxCell id="C--NE389PpcoagH8Nilt-24" value="&lt;u&gt;card name&lt;/u&gt;" style="rounded=0;whiteSpace=wrap;html=1;verticalAlign=middle;align=center;" parent="1" vertex="1">
          <mxGeometry x="289.6885245901639" y="104.35384615384616" width="105.1639344262295" height="36.83076923076923" as="geometry" />
        </mxCell>
        <mxCell id="C--NE389PpcoagH8Nilt-26" value="Bank account" style="text;html=1;strokeColor=none;fillColor=none;align=center;verticalAlign=middle;whiteSpace=wrap;rounded=0;" parent="1" vertex="1">
          <mxGeometry x="-15.28688524590163" y="235.12307692307695" width="84.13114754098362" height="18.415384615384614" as="geometry" />
        </mxCell>
        <mxCell id="C--NE389PpcoagH8Nilt-28" value="To" style="rounded=0;whiteSpace=wrap;html=1;verticalAlign=middle;align=center;" parent="1" vertex="1">
          <mxGeometry x="-15.28688524590163" y="331.61538461538464" width="105.1639344262295" height="36.83076923076923" as="geometry" />
        </mxCell>
        <mxCell id="C--NE389PpcoagH8Nilt-29" value="Full or Not" style="rounded=0;whiteSpace=wrap;html=1;verticalAlign=middle;align=center;" parent="1" vertex="1">
          <mxGeometry x="279.172131147541" y="331.61538461538464" width="94.64754098360656" height="36.83076923076923" as="geometry" />
        </mxCell>
        <mxCell id="C--NE389PpcoagH8Nilt-30" value="is traveling" style="rounded=0;whiteSpace=wrap;html=1;verticalAlign=middle;align=center;" parent="1" vertex="1">
          <mxGeometry x="184.52459016393448" y="331.61538461538464" width="94.64754098360656" height="36.83076923076923" as="geometry" />
        </mxCell>
        <mxCell id="C--NE389PpcoagH8Nilt-31" value="From" style="rounded=0;whiteSpace=wrap;html=1;verticalAlign=middle;align=center;" parent="1" vertex="1">
          <mxGeometry x="89.8770491803279" y="331.61538461538464" width="94.64754098360656" height="36.83076923076923" as="geometry" />
        </mxCell>
        <mxCell id="C--NE389PpcoagH8Nilt-32" value="GPS" style="rounded=0;whiteSpace=wrap;html=1;verticalAlign=middle;align=center;" parent="1" vertex="1">
          <mxGeometry x="373.8196721311476" y="331.61538461538464" width="105.1639344262295" height="36.83076923076923" as="geometry" />
        </mxCell>
        <mxCell id="C--NE389PpcoagH8Nilt-33" value="Trip" style="text;html=1;strokeColor=none;fillColor=none;align=center;verticalAlign=middle;whiteSpace=wrap;rounded=0;" parent="1" vertex="1">
          <mxGeometry x="-15.28688524590163" y="313.20000000000005" width="63.09836065573771" height="18.415384615384614" as="geometry" />
        </mxCell>
        <mxCell id="C--NE389PpcoagH8Nilt-38" style="edgeStyle=orthogonalEdgeStyle;rounded=0;orthogonalLoop=1;jettySize=auto;html=1;exitX=0.75;exitY=0;exitDx=0;exitDy=0;verticalAlign=middle;align=center;" parent="1" edge="1">
          <mxGeometry relative="1" as="geometry">
            <mxPoint x="58.327868852459005" y="18.415384615384614" as="targetPoint" />
            <mxPoint x="563.1147540983607" y="337.61538461538464" as="sourcePoint" />
            <Array as="points">
              <mxPoint x="573.6311475409836" y="337.61538461538464" />
              <mxPoint x="573.6311475409836" />
              <mxPoint x="58.327868852459005" />
            </Array>
          </mxGeometry>
        </mxCell>
        <mxCell id="C--NE389PpcoagH8Nilt-34" value="&lt;u&gt;Driver_phone_number&lt;/u&gt;" style="rounded=0;whiteSpace=wrap;html=1;verticalAlign=middle;align=center;" parent="1" vertex="1">
          <mxGeometry x="478.983606557377" y="331.61538461538464" width="147.2295081967213" height="36.83076923076923" as="geometry" />
        </mxCell>
        <mxCell id="C--NE389PpcoagH8Nilt-39" style="edgeStyle=orthogonalEdgeStyle;rounded=0;orthogonalLoop=1;jettySize=auto;html=1;exitX=0.5;exitY=1;exitDx=0;exitDy=0;entryX=0;entryY=0.5;entryDx=0;entryDy=0;verticalAlign=middle;align=center;" parent="1" source="C--NE389PpcoagH8Nilt-37" target="C--NE389PpcoagH8Nilt-6" edge="1">
          <mxGeometry relative="1" as="geometry">
            <Array as="points">
              <mxPoint x="689" y="399" />
              <mxPoint x="-43" y="399" />
              <mxPoint x="-43" y="123" />
            </Array>
          </mxGeometry>
        </mxCell>
        <mxCell id="C--NE389PpcoagH8Nilt-37" value="&lt;u&gt;passenger_phone name&lt;/u&gt;" style="rounded=0;whiteSpace=wrap;html=1;verticalAlign=middle;align=center;" parent="1" vertex="1">
          <mxGeometry x="615.6967213114754" y="331.61538461538464" width="147.2295081967213" height="36.83076923076923" as="geometry" />
        </mxCell>
        <mxCell id="C--NE389PpcoagH8Nilt-40" value="is cach" style="rounded=0;whiteSpace=wrap;html=1;verticalAlign=middle;align=center;" parent="1" vertex="1">
          <mxGeometry x="762.9262295081967" y="331.61538461538464" width="126.19672131147541" height="36.83076923076923" as="geometry" />
        </mxCell>
        <mxCell id="C--NE389PpcoagH8Nilt-41" value="money" style="rounded=0;whiteSpace=wrap;html=1;verticalAlign=middle;align=center;" parent="1" vertex="1">
          <mxGeometry x="889.1229508196723" y="331.61538461538464" width="126.19672131147541" height="36.83076923076923" as="geometry" />
        </mxCell>
        <mxCell id="C--NE389PpcoagH8Nilt-42" value="is accepted" style="rounded=0;whiteSpace=wrap;html=1;verticalAlign=middle;align=center;" parent="1" vertex="1">
          <mxGeometry x="1015.3196721311476" y="331.61538461538464" width="115.68032786885247" height="36.83076923076923" as="geometry" />
        </mxCell>
      </root>
    </mxGraphModel>
  </diagram>
</mxfile>
